<svg xmlns="http://www.w3.org/2000/svg" xmlns:xlink="http://www.w3.org/1999/xlink" width="2000" zoomAndPan="magnify" viewBox="0 0 1500 1499.999933" height="2000" preserveAspectRatio="xMidYMid meet" version="1.0"><defs><filter x="0%" y="0%" width="100%" height="100%" id="fa09570de6"><feColorMatrix values="0 0 0 0 1 0 0 0 0 1 0 0 0 0 1 0 0 0 1 0" color-interpolation-filters="sRGB"/></filter><g/><mask id="5e71178dd2"><g filter="url(#fa09570de6)"><rect x="-150" width="1800" fill="#000000" y="-149.999993" height="1799.99992" fill-opacity="0.92"/></g></mask><clipPath id="6019871caa"><rect x="0" width="765" y="0" height="1024"/></clipPath><clipPath id="643774b78e"><rect x="0" width="682" y="0" height="906"/></clipPath></defs><rect x="-150" width="1800" fill="#ffffff" y="-149.999993" height="1799.99992" fill-opacity="1"/><rect x="-150" width="1800" fill="#38b6ff" y="-149.999993" height="1799.99992" fill-opacity="1"/><g mask="url(#5e71178dd2)"><g transform="matrix(1, 0, 0, 1, 695, 238)"><g clip-path="url(#6019871caa)"><g fill="#fdfbf5" fill-opacity="1"><g transform="translate(0.93388, 693.1249)"><g><path d="M 111.109375 77.765625 L 35.84375 2.515625 L 35.84375 -508.203125 L 224.359375 -508.203125 L 320.765625 -430.4375 L 365.921875 -271.671875 L 443.34375 -508.203125 L 631.125 -508.203125 L 709.96875 -433.296875 L 709.96875 77.765625 L 588.46875 77.765625 L 512.484375 2.859375 L 512.484375 -132.609375 L 440.828125 77.765625 L 341.1875 77.765625 L 281.34375 2.515625 L 226.140625 -153.390625 L 226.140625 77.765625 Z M 48.734375 -6.453125 L 145.875 -6.453125 L 145.875 -385.640625 L 158.765625 -385.640625 L 292.09375 -6.453125 L 378.109375 -6.453125 L 493.515625 -331.515625 L 511.796875 -385.640625 L 525.390625 -385.640625 L 525.390625 -6.453125 L 622.15625 -6.453125 L 622.15625 -495.296875 L 452.65625 -495.296875 L 335.09375 -135.46875 L 217.546875 -495.296875 L 48.734375 -495.296875 Z M 635.78125 -477.75 L 644.375 -477.75 L 635.78125 -485.984375 Z M 335.09375 -177.046875 L 358.75 -249.4375 L 309.296875 -423.265625 L 235.109375 -483.125 Z M 648.328125 -464.84375 L 657.640625 -464.84375 L 657.640625 -465.203125 L 649.046875 -473.4375 L 648.328125 -473.4375 Z M 635.0625 -451.21875 L 645.453125 -451.21875 L 645.453125 -461.609375 L 635.0625 -461.609375 Z M 661.578125 -451.9375 L 670.546875 -451.9375 L 670.546875 -453.015625 L 662.65625 -460.546875 L 661.578125 -460.546875 Z M 647.609375 -438.3125 L 658.359375 -438.3125 L 658.359375 -448.71875 L 647.609375 -448.71875 Z M 674.484375 -439.03125 L 683.453125 -439.03125 L 683.453125 -440.46875 L 675.921875 -447.640625 L 674.484375 -447.640625 Z M 635.0625 -424.703125 L 646.171875 -424.703125 L 646.171875 -436.53125 L 635.0625 -436.53125 Z M 660.875 -425.421875 L 671.265625 -425.421875 L 671.265625 -435.8125 L 660.875 -435.8125 Z M 687.390625 -426.140625 L 696.34375 -426.140625 L 696.34375 -428.28125 L 689.546875 -434.734375 L 687.390625 -434.734375 Z M 646.890625 -411.796875 L 659.078125 -411.796875 L 659.078125 -423.625 L 646.890625 -423.625 Z M 673.765625 -412.515625 L 684.15625 -412.515625 L 684.15625 -422.90625 L 673.765625 -422.90625 Z M 697.0625 64.875 L 697.0625 -334.75 L 685.953125 -334.75 L 685.953125 -346.5625 L 697.0625 -346.5625 L 697.0625 -359.828125 L 685.234375 -359.828125 L 685.234375 -372.734375 L 672.34375 -372.734375 L 672.34375 -385.640625 L 659.4375 -385.640625 L 659.4375 -398.53125 L 646.53125 -398.53125 L 646.53125 -411.4375 L 635.0625 -411.4375 L 635.0625 -398.171875 L 646.171875 -398.171875 L 646.171875 -386.359375 L 635.0625 -386.359375 L 635.0625 -372.015625 L 645.8125 -372.015625 L 645.8125 -361.265625 L 635.0625 -361.265625 L 635.0625 6.09375 Z M 659.796875 -398.890625 L 671.984375 -398.890625 L 671.984375 -410.71875 L 659.796875 -410.71875 Z M 686.671875 -399.609375 L 697.0625 -399.609375 L 697.0625 -410 L 686.671875 -410 Z M 672.6875 -386 L 684.875 -386 L 684.875 -397.828125 L 672.6875 -397.828125 Z M 647.25 -373.453125 L 647.25 -385.28125 L 659.078125 -385.28125 L 659.078125 -373.453125 Z M 685.59375 -373.09375 L 697.0625 -373.09375 L 697.0625 -384.921875 L 685.59375 -384.921875 Z M 660.15625 -360.546875 L 660.15625 -372.375 L 671.984375 -372.375 L 671.984375 -360.546875 Z M 673.046875 -347.640625 L 673.046875 -359.46875 L 684.875 -359.46875 L 684.875 -347.640625 Z M 647.96875 -348.71875 L 647.96875 -359.109375 L 658.71875 -359.109375 L 658.71875 -348.71875 Z M 660.875 -335.8125 L 660.875 -346.5625 L 671.265625 -346.5625 L 671.265625 -335.8125 Z M 635.78125 -336.53125 L 635.78125 -345.859375 L 645.09375 -345.859375 L 645.09375 -336.53125 Z M 673.40625 -322.921875 L 673.40625 -333.671875 L 684.15625 -333.671875 L 684.15625 -322.921875 Z M 648.6875 -323.625 L 648.6875 -332.953125 L 658 -332.953125 L 658 -323.625 Z M 502.109375 -317.890625 L 505.34375 -317.890625 L 505.34375 -321.484375 L 503.546875 -321.484375 Z M 686.3125 -310.375 L 686.3125 -320.765625 L 696.703125 -320.765625 L 696.703125 -310.375 Z M 661.578125 -311.09375 L 661.578125 -320.046875 L 670.546875 -320.046875 L 670.546875 -311.09375 Z M 636.5 -311.8125 L 636.5 -319.6875 L 644.375 -319.6875 L 644.375 -311.8125 Z M 158.765625 -309.65625 L 162.359375 -309.65625 L 162.359375 -313.234375 L 158.765625 -313.234375 Z M 674.125 -298.1875 L 674.125 -307.5 L 683.453125 -307.5 L 683.453125 -298.1875 Z M 649.40625 -298.90625 L 649.40625 -306.78125 L 657.28125 -306.78125 L 657.28125 -298.90625 Z M 171.671875 -297.109375 L 174.890625 -297.109375 L 174.890625 -298.1875 L 174.1875 -300.34375 L 171.671875 -300.34375 Z M 501.390625 -292.09375 L 506.0625 -292.09375 L 506.0625 -296.390625 L 501.390625 -296.390625 Z M 687.03125 -285.28125 L 687.03125 -294.609375 L 696.34375 -294.609375 L 696.34375 -285.28125 Z M 661.9375 -286 L 661.9375 -293.890625 L 669.828125 -293.890625 L 669.828125 -286 Z M 637.21875 -286.71875 L 637.21875 -293.171875 L 643.671875 -293.171875 L 643.671875 -286.71875 Z M 158.765625 -283.140625 L 163.078125 -283.140625 L 163.078125 -288.515625 L 158.765625 -288.515625 Z M 488.5 -278.828125 L 493.875 -278.828125 L 493.875 -284.203125 L 490.28125 -284.203125 Z M 674.84375 -273.453125 L 674.84375 -281.34375 L 682.734375 -281.34375 L 682.734375 -273.453125 Z M 650.109375 -274.171875 L 650.109375 -280.625 L 656.5625 -280.625 L 656.5625 -274.171875 Z M 170.234375 -270.234375 L 175.96875 -270.234375 L 175.96875 -275.96875 L 170.234375 -275.96875 Z M 501.03125 -265.9375 L 506.421875 -265.9375 L 506.421875 -271.3125 L 501.03125 -271.3125 Z M 687.75 -260.546875 L 687.75 -268.4375 L 695.625 -268.4375 L 695.625 -260.546875 Z M 662.65625 -261.265625 L 662.65625 -267.71875 L 669.109375 -267.71875 L 669.109375 -261.265625 Z M 637.9375 -261.984375 L 637.9375 -267 L 642.953125 -267 L 642.953125 -261.984375 Z M 158.765625 -256.25 L 164.5 -256.25 L 164.5 -264.140625 L 158.765625 -264.140625 Z M 183.140625 -257.6875 L 188.875 -257.6875 L 188.875 -258.765625 L 187.4375 -263.0625 L 183.140625 -263.0625 Z M 487.78125 -252.671875 L 494.234375 -252.671875 L 494.234375 -259.125 L 487.78125 -259.125 Z M 675.5625 -248.375 L 675.5625 -254.8125 L 682.015625 -254.8125 L 682.015625 -248.375 Z M 650.828125 -249.078125 L 650.828125 -254.109375 L 655.84375 -254.109375 L 655.84375 -249.078125 Z M 169.15625 -243.703125 L 177.046875 -243.703125 L 177.046875 -251.59375 L 169.15625 -251.59375 Z M 474.515625 -239.40625 L 482.046875 -239.40625 L 482.046875 -246.9375 L 477.03125 -246.9375 Z M 500.6875 -239.765625 L 507.125 -239.765625 L 507.125 -246.21875 L 500.6875 -246.21875 Z M 688.46875 -235.828125 L 688.46875 -242.28125 L 694.921875 -242.28125 L 694.921875 -235.828125 Z M 663.375 -236.546875 L 663.375 -241.5625 L 668.390625 -241.5625 L 668.390625 -236.546875 Z M 638.640625 -237.265625 L 638.640625 -240.84375 L 642.234375 -240.84375 L 642.234375 -237.265625 Z M 158.765625 -229.734375 L 165.578125 -229.734375 L 165.578125 -239.765625 L 158.765625 -239.765625 Z M 182.0625 -230.8125 L 189.953125 -230.8125 L 189.953125 -238.6875 L 182.0625 -238.6875 Z M 487.421875 -226.5 L 494.59375 -226.5 L 494.59375 -234.03125 L 487.421875 -234.03125 Z M 676.28125 -223.640625 L 676.28125 -228.65625 L 681.296875 -228.65625 L 681.296875 -223.640625 Z M 651.546875 -224.359375 L 651.546875 -227.9375 L 655.140625 -227.9375 L 655.140625 -224.359375 Z M 168.09375 -216.828125 L 178.484375 -216.828125 L 178.484375 -227.21875 L 168.09375 -227.21875 Z M 194.609375 -217.90625 L 202.5 -217.90625 L 202.5 -220.40625 L 200.703125 -225.796875 L 194.609375 -225.796875 Z M 474.15625 -213.25 L 482.40625 -213.25 L 482.40625 -221.84375 L 474.15625 -221.84375 Z M 499.96875 -213.96875 L 507.484375 -213.96875 L 507.484375 -221.125 L 499.96875 -221.125 Z M 213.25 65.234375 L 213.25 -67.734375 L 210.015625 -67.734375 L 210.015625 -70.96875 L 213.25 -70.96875 L 213.25 -91.75 L 208.953125 -91.75 L 208.953125 -97.84375 L 213.25 -97.84375 L 213.25 -116.125 L 207.515625 -116.125 L 207.515625 -124.71875 L 213.25 -124.71875 L 213.25 -140.140625 L 206.4375 -140.140625 L 206.4375 -151.609375 L 213.25 -151.609375 L 213.25 -164.5 L 205 -164.5 L 205 -177.40625 L 192.453125 -177.40625 L 192.453125 -189.953125 L 179.5625 -189.953125 L 179.5625 -202.859375 L 166.65625 -202.859375 L 166.65625 -215.75 L 158.765625 -215.75 L 158.765625 -202.859375 L 166.65625 -202.859375 L 166.65625 -191.390625 L 158.765625 -191.390625 L 158.765625 -175.96875 L 165.21875 -175.96875 L 165.21875 -167.015625 L 158.765625 -167.015625 L 158.765625 -149.09375 L 164.5 -149.09375 L 164.5 -143 L 158.765625 -143 L 158.765625 -122.21875 L 162.359375 -122.21875 L 162.359375 -118.625 L 158.765625 -118.625 L 158.765625 6.453125 Z M 689.1875 -210.734375 L 689.1875 -215.75 L 694.203125 -215.75 L 694.203125 -210.734375 Z M 664.09375 -211.453125 L 664.09375 -215.03125 L 667.671875 -215.03125 L 667.671875 -211.453125 Z M 180.625 -203.921875 L 191.03125 -203.921875 L 191.03125 -214.328125 L 180.625 -214.328125 Z M 460.890625 -199.984375 L 470.21875 -199.984375 L 470.21875 -209.65625 L 464.125 -209.65625 L 460.890625 -201.0625 Z M 486.703125 -200.703125 L 495.296875 -200.703125 L 495.296875 -208.953125 L 486.703125 -208.953125 Z M 677 -198.90625 L 677 -202.5 L 680.578125 -202.5 L 680.578125 -198.90625 Z M 193.53125 -191.390625 L 203.921875 -191.390625 L 203.921875 -201.78125 L 193.53125 -201.78125 Z M 473.4375 -187.4375 L 483.125 -187.4375 L 483.125 -196.765625 L 473.4375 -196.765625 Z M 499.609375 -187.796875 L 507.84375 -187.796875 L 507.84375 -196.40625 L 499.609375 -196.40625 Z M 455.875 -187.078125 L 458.03125 -187.078125 L 458.03125 -192.8125 Z M 168.09375 -178.484375 L 168.09375 -189.953125 L 179.5625 -189.953125 L 179.5625 -178.484375 Z M 689.890625 -186.015625 L 689.890625 -189.59375 L 693.484375 -189.59375 L 693.484375 -186.015625 Z M 206.4375 -178.484375 L 213.25 -178.484375 L 213.25 -188.875 L 206.4375 -188.875 Z M 460.1875 -173.828125 L 470.578125 -173.828125 L 470.578125 -184.578125 L 460.1875 -184.578125 Z M 486.34375 -174.546875 L 495.65625 -174.546875 L 495.65625 -183.859375 L 486.34375 -183.859375 Z M 180.625 -165.9375 L 180.625 -177.046875 L 192.09375 -177.046875 L 192.09375 -165.9375 Z M 446.921875 -160.5625 L 458.390625 -160.5625 L 458.390625 -172.03125 L 450.5 -172.03125 L 446.921875 -161.640625 Z M 473.078125 -161.28125 L 483.484375 -161.28125 L 483.484375 -171.671875 L 473.078125 -171.671875 Z M 498.890625 -161.640625 L 508.5625 -161.640625 L 508.5625 -171.3125 L 498.890625 -171.3125 Z M 193.53125 -153.03125 L 193.53125 -164.5 L 205 -164.5 L 205 -153.03125 Z M 169.15625 -154.46875 L 169.15625 -163.078125 L 178.125 -163.078125 L 178.125 -154.46875 Z M 441.90625 -147.296875 L 446.203125 -147.296875 L 446.203125 -159.484375 Z M 459.828125 -148.015625 L 471.296875 -148.015625 L 471.296875 -159.484375 L 459.828125 -159.484375 Z M 485.625 -148.375 L 496.015625 -148.375 L 496.015625 -158.765625 L 485.625 -158.765625 Z M 182.0625 -141.5625 L 182.0625 -150.53125 L 191.03125 -150.53125 L 191.03125 -141.5625 Z M 431.515625 64.515625 L 438.671875 43.71875 L 434.015625 43.71875 L 434.015625 31.53125 L 442.984375 31.53125 L 451.9375 5.375 L 446.5625 5.375 L 446.5625 -6.8125 L 455.875 -6.8125 L 464.84375 -32.609375 L 459.46875 -32.609375 L 459.46875 -45.15625 L 469.140625 -45.15625 L 477.75 -70.96875 L 472.359375 -70.96875 L 472.359375 -83.5 L 482.046875 -83.5 L 484.546875 -90.671875 L 484.546875 -96.765625 L 486.703125 -96.765625 L 490.640625 -108.953125 L 484.546875 -108.953125 L 484.546875 -121.5 L 472.015625 -121.5 L 472.015625 -109.3125 L 459.46875 -109.3125 L 459.46875 -121.859375 L 471.65625 -121.859375 L 471.65625 -134.40625 L 459.109375 -134.40625 L 459.109375 -122.21875 L 446.5625 -122.21875 L 446.5625 -134.75 L 458.75 -134.75 L 458.75 -147.296875 L 446.5625 -147.296875 L 446.5625 -134.75 L 437.609375 -134.75 L 428.28125 -108.953125 L 433.65625 -108.953125 L 433.65625 -96.765625 L 423.984375 -96.765625 L 421.109375 -88.53125 L 421.109375 -83.5 L 419.328125 -83.5 L 414.671875 -70.609375 L 420.75 -70.609375 L 420.75 -58.421875 L 410.359375 -58.421875 L 408.21875 -52.328125 L 408.21875 -45.15625 L 405.703125 -45.15625 L 401.046875 -32.25 L 408.21875 -32.25 L 408.21875 -20.0625 L 396.75 -20.0625 L 395.3125 -15.765625 L 395.3125 -7.171875 L 392.09375 -7.171875 L 387.78125 5.734375 L 395.3125 5.734375 L 395.3125 16.484375 L 397.109375 18.640625 L 408.21875 18.640625 L 408.21875 31.53125 L 420.75 31.53125 L 420.75 43.71875 L 415.734375 43.71875 L 421.109375 50.890625 L 421.109375 44.078125 L 433.65625 44.078125 L 433.65625 56.625 L 425.421875 56.625 Z M 472.359375 -135.109375 L 483.828125 -135.109375 L 483.828125 -146.578125 L 472.359375 -146.578125 Z M 498.53125 -135.828125 L 499.96875 -135.828125 L 503.546875 -146.21875 L 498.53125 -146.21875 Z M 194.96875 -128.671875 L 194.96875 -137.625 L 203.5625 -137.625 L 203.5625 -128.671875 Z M 170.59375 -130.09375 L 170.59375 -136.1875 L 176.6875 -136.1875 L 176.6875 -130.09375 Z M 485.265625 -122.578125 L 495.296875 -122.578125 L 496.734375 -126.515625 L 496.734375 -134.046875 L 485.265625 -134.046875 Z M 183.5 -117.203125 L 183.5 -123.640625 L 189.59375 -123.640625 L 189.59375 -117.203125 Z M 434.015625 -109.3125 L 434.015625 -121.859375 L 446.203125 -121.859375 L 446.203125 -109.3125 Z M 196.046875 -104.65625 L 196.046875 -110.75 L 202.5 -110.75 L 202.5 -104.65625 Z M 172.03125 -105.734375 L 172.03125 -109.3125 L 175.609375 -109.3125 L 175.609375 -105.734375 Z M 446.5625 -96.765625 L 446.5625 -108.953125 L 459.109375 -108.953125 L 459.109375 -96.765625 Z M 472.359375 -96.765625 L 472.359375 -108.953125 L 484.546875 -108.953125 L 484.546875 -96.765625 Z M 184.9375 -93.1875 L 184.9375 -96.765625 L 188.15625 -96.765625 L 188.15625 -93.1875 Z M 434.015625 -83.859375 L 434.015625 -96.40625 L 446.203125 -96.40625 L 446.203125 -83.859375 Z M 459.46875 -83.859375 L 459.46875 -96.40625 L 472.015625 -96.40625 L 472.015625 -83.859375 Z M 197.484375 -80.28125 L 197.484375 -83.859375 L 201.0625 -83.859375 L 201.0625 -80.28125 Z M 421.109375 -70.96875 L 421.109375 -83.5 L 433.65625 -83.5 L 433.65625 -70.96875 Z M 446.5625 -70.96875 L 446.5625 -83.5 L 459.109375 -83.5 L 459.109375 -70.96875 Z M 434.015625 -58.421875 L 434.015625 -70.609375 L 446.203125 -70.609375 L 446.203125 -58.421875 Z M 459.46875 -58.421875 L 459.46875 -70.609375 L 472.015625 -70.609375 L 472.015625 -58.421875 Z M 421.109375 -45.515625 L 421.109375 -58.0625 L 433.65625 -58.0625 L 433.65625 -45.515625 Z M 446.5625 -45.515625 L 446.5625 -58.0625 L 459.109375 -58.0625 L 459.109375 -45.515625 Z M 408.21875 -32.609375 L 408.21875 -45.15625 L 420.75 -45.15625 L 420.75 -32.609375 Z M 434.015625 -32.609375 L 434.015625 -45.15625 L 446.203125 -45.15625 L 446.203125 -32.609375 Z M 421.109375 -20.0625 L 421.109375 -32.25 L 433.65625 -32.25 L 433.65625 -20.0625 Z M 446.5625 -20.0625 L 446.5625 -32.25 L 459.109375 -32.25 L 459.109375 -20.0625 Z M 408.21875 -7.171875 L 408.21875 -19.71875 L 420.75 -19.71875 L 420.75 -7.171875 Z M 434.015625 -7.171875 L 434.015625 -19.71875 L 446.203125 -19.71875 L 446.203125 -7.171875 Z M 395.671875 5.375 L 395.671875 -6.8125 L 408.21875 -6.8125 L 408.21875 5.375 Z M 421.109375 5.375 L 421.109375 -6.8125 L 433.65625 -6.8125 L 433.65625 5.375 Z M 408.21875 18.28125 L 408.21875 5.734375 L 420.75 5.734375 L 420.75 18.28125 Z M 434.015625 18.28125 L 434.015625 5.734375 L 446.203125 5.734375 L 446.203125 18.28125 Z M 421.109375 31.1875 L 421.109375 18.640625 L 433.65625 18.640625 L 433.65625 31.1875 Z M 421.109375 31.1875 "/></g></g></g></g></g></g><g transform="matrix(1, 0, 0, 1, 66, 269)"><g clip-path="url(#643774b78e)"><g fill="#00ffff" fill-opacity="1"><g transform="translate(-2.800292, 749.907006)"><g><path d="M 632.59375 -602.453125 L 632.59375 -481.984375 L 150.625 -481.984375 L 150.625 -361.484375 L 512.109375 -361.484375 C 534.191406 -361.484375 554.394531 -356.085938 572.71875 -345.296875 C 591.050781 -334.503906 605.613281 -319.941406 616.40625 -301.609375 C 627.195312 -283.285156 632.59375 -263.078125 632.59375 -240.984375 L 632.59375 -120.5 C 632.59375 -98.40625 627.195312 -78.195312 616.40625 -59.875 C 605.613281 -41.550781 591.050781 -26.988281 572.71875 -16.1875 C 554.394531 -5.394531 534.191406 0 512.109375 0 L 30.125 0 L 30.125 -120.5 L 512.109375 -120.5 L 512.109375 -240.984375 L 150.625 -240.984375 C 128.53125 -240.984375 108.316406 -246.378906 89.984375 -257.171875 C 71.660156 -267.972656 57.101562 -282.535156 46.3125 -300.859375 C 35.519531 -319.179688 30.125 -339.390625 30.125 -361.484375 L 30.125 -481.984375 C 30.125 -504.054688 35.519531 -524.253906 46.3125 -542.578125 C 57.101562 -560.910156 71.660156 -575.472656 89.984375 -586.265625 C 108.316406 -597.054688 128.53125 -602.453125 150.625 -602.453125 Z M 632.59375 -602.453125 "/></g></g></g><g fill="#ff00ff" fill-opacity="1"><g transform="translate(4.139947, 754.766595)"><g><path d="M 632.59375 -602.453125 L 632.59375 -481.984375 L 150.625 -481.984375 L 150.625 -361.484375 L 512.109375 -361.484375 C 534.191406 -361.484375 554.394531 -356.085938 572.71875 -345.296875 C 591.050781 -334.503906 605.613281 -319.941406 616.40625 -301.609375 C 627.195312 -283.285156 632.59375 -263.078125 632.59375 -240.984375 L 632.59375 -120.5 C 632.59375 -98.40625 627.195312 -78.195312 616.40625 -59.875 C 605.613281 -41.550781 591.050781 -26.988281 572.71875 -16.1875 C 554.394531 -5.394531 534.191406 0 512.109375 0 L 30.125 0 L 30.125 -120.5 L 512.109375 -120.5 L 512.109375 -240.984375 L 150.625 -240.984375 C 128.53125 -240.984375 108.316406 -246.378906 89.984375 -257.171875 C 71.660156 -267.972656 57.101562 -282.535156 46.3125 -300.859375 C 35.519531 -319.179688 30.125 -339.390625 30.125 -361.484375 L 30.125 -481.984375 C 30.125 -504.054688 35.519531 -524.253906 46.3125 -542.578125 C 57.101562 -560.910156 71.660156 -575.472656 89.984375 -586.265625 C 108.316406 -597.054688 128.53125 -602.453125 150.625 -602.453125 Z M 632.59375 -602.453125 "/></g></g></g><g fill="#fdfbf5" fill-opacity="1"><g transform="translate(0.669827, 752.336801)"><g><path d="M 632.59375 -602.453125 L 632.59375 -481.984375 L 150.625 -481.984375 L 150.625 -361.484375 L 512.109375 -361.484375 C 534.191406 -361.484375 554.394531 -356.085938 572.71875 -345.296875 C 591.050781 -334.503906 605.613281 -319.941406 616.40625 -301.609375 C 627.195312 -283.285156 632.59375 -263.078125 632.59375 -240.984375 L 632.59375 -120.5 C 632.59375 -98.40625 627.195312 -78.195312 616.40625 -59.875 C 605.613281 -41.550781 591.050781 -26.988281 572.71875 -16.1875 C 554.394531 -5.394531 534.191406 0 512.109375 0 L 30.125 0 L 30.125 -120.5 L 512.109375 -120.5 L 512.109375 -240.984375 L 150.625 -240.984375 C 128.53125 -240.984375 108.316406 -246.378906 89.984375 -257.171875 C 71.660156 -267.972656 57.101562 -282.535156 46.3125 -300.859375 C 35.519531 -319.179688 30.125 -339.390625 30.125 -361.484375 L 30.125 -481.984375 C 30.125 -504.054688 35.519531 -524.253906 46.3125 -542.578125 C 57.101562 -560.910156 71.660156 -575.472656 89.984375 -586.265625 C 108.316406 -597.054688 128.53125 -602.453125 150.625 -602.453125 Z M 632.59375 -602.453125 "/></g></g></g></g></g></svg>