<svg xmlns="http://www.w3.org/2000/svg" xmlns:xlink="http://www.w3.org/1999/xlink" width="2000" zoomAndPan="magnify" viewBox="0 0 1500 1499.999933" height="2000" preserveAspectRatio="xMidYMid meet" version="1.0"><defs><g/><clipPath id="97347c1173"><rect x="0" width="682" y="0" height="905"/></clipPath><clipPath id="663f8a6afb"><rect x="0" width="680" y="0" height="905"/></clipPath></defs><rect x="-150" width="1800" fill="#ffffff" y="-149.999993" height="1799.99992" fill-opacity="1"/><rect x="-150" width="1800" fill="#545454" y="-149.999993" height="1799.99992" fill-opacity="1"/><g transform="matrix(1, 0, 0, 1, 92, 269)"><g clip-path="url(#97347c1173)"><g fill="#000000" fill-opacity="1"><g transform="translate(0.457784, 752.154603)"><g><path d="M 632.59375 -602.453125 L 632.59375 -481.984375 L 150.625 -481.984375 L 150.625 -361.484375 L 512.109375 -361.484375 C 534.191406 -361.484375 554.394531 -356.085938 572.71875 -345.296875 C 591.050781 -334.503906 605.613281 -319.941406 616.40625 -301.609375 C 627.195312 -283.285156 632.59375 -263.078125 632.59375 -240.984375 L 632.59375 -120.5 C 632.59375 -98.40625 627.195312 -78.195312 616.40625 -59.875 C 605.613281 -41.550781 591.050781 -26.988281 572.71875 -16.1875 C 554.394531 -5.394531 534.191406 0 512.109375 0 L 30.125 0 L 30.125 -120.5 L 512.109375 -120.5 L 512.109375 -240.984375 L 150.625 -240.984375 C 128.53125 -240.984375 108.316406 -246.378906 89.984375 -257.171875 C 71.660156 -267.972656 57.101562 -282.535156 46.3125 -300.859375 C 35.519531 -319.179688 30.125 -339.390625 30.125 -361.484375 L 30.125 -481.984375 C 30.125 -504.054688 35.519531 -524.253906 46.3125 -542.578125 C 57.101562 -560.910156 71.660156 -575.472656 89.984375 -586.265625 C 108.316406 -597.054688 128.53125 -602.453125 150.625 -602.453125 Z M 632.59375 -602.453125 "/></g></g></g></g></g><g transform="matrix(1, 0, 0, 1, 728, 270)"><g clip-path="url(#663f8a6afb)"><g fill="#fdfbf5" fill-opacity="1"><g transform="translate(679.535352, 152.261993)"><g><path d="M -150.546875 602.1875 L -511.859375 602.1875 C -533.941406 602.1875 -554.140625 596.789062 -572.453125 586 C -590.765625 575.207031 -605.316406 560.65625 -616.109375 542.34375 C -626.898438 524.03125 -632.296875 503.832031 -632.296875 481.75 L -632.296875 0 L -511.859375 0 L -511.859375 481.75 L -391.421875 481.75 L -391.421875 0 L -270.984375 0 L -270.984375 481.75 L -150.546875 481.75 L -150.546875 0 L -30.109375 0 L -30.109375 481.75 C -30.109375 503.832031 -35.503906 524.03125 -46.296875 542.34375 C -57.085938 560.65625 -71.640625 575.207031 -89.953125 586 C -108.265625 596.789062 -128.460938 602.1875 -150.546875 602.1875 Z M -150.546875 602.1875 "/></g></g></g></g></g></svg>